<svg xmlns="http://www.w3.org/2000/svg" viewBox="0 0 64 64">
  <!-- Background -->
  <rect width="64" height="64" rx="12" ry="12" fill="#ffffff"/>
  <!-- Shield -->
  <path d="M32 8c-4.2 3.7-9.2 5.2-14.7 6.3-1.6.3-2.7 1.7-2.7 3.3v14.8c0 6.8 3.6 13.2 9.5 16.9l6.9 4.3c.6.4 1.4.4 2 0l6.9-4.3c5.9-3.7 9.5-10.1 9.5-16.9V17.6c0-1.6-1.1-3-2.7-3.3C41.2 13.2 36.2 11.7 32 8z" fill="#111827"/>
  <!-- Letter D -->
  <path d="M25 24h9c5.5 0 10 4.5 10 10s-4.5 10-10 10h-9V24zm6 6v8h3c2.2 0 4-1.8 4-4s-1.8-4-4-4h-3z" fill="#ffffff"/>
</svg>

